<svg xmlns="http://www.w3.org/2000/svg" xmlns:xlink="http://www.w3.org/1999/xlink" width="32" height="32" viewBox="0 0 32 32">
  <defs>
    <clipPath id="clip-logo">
      <rect width="32" height="32"/>
    </clipPath>
  </defs>
  <g id="logo" clip-path="url(#clip-logo)">
    <rect width="32" height="32" fill="rgba(0,0,0,0)"/>
    <g id="Group_5" data-name="Group 5" transform="translate(3.115 -2.327) rotate(9)">
      <g id="Rectangle_1" data-name="Rectangle 1" transform="translate(9.3 14.25)" fill="none" stroke="#0495d4" stroke-width="3.5">
        <path d="M0,0H11a5,5,0,0,1,5,5V16a0,0,0,0,1,0,0H5a5,5,0,0,1-5-5V0A0,0,0,0,1,0,0Z" stroke="none"/>
        <path d="M3.5,1.75H11A3.25,3.25,0,0,1,14.25,5v7.5a1.75,1.75,0,0,1-1.75,1.75H5A3.25,3.25,0,0,1,1.75,11V3.5A1.75,1.75,0,0,1,3.5,1.75Z" fill="none"/>
      </g>
      <g id="Rectangle_1-2" data-name="Rectangle 1" transform="translate(6.7 1.75)" fill="none" stroke="#0495d4" stroke-width="3.5">
        <path d="M0,0H11a5,5,0,0,1,5,5V16a0,0,0,0,1,0,0H5a5,5,0,0,1-5-5V0A0,0,0,0,1,0,0Z" stroke="none"/>
        <path d="M3.5,1.75H11A3.25,3.25,0,0,1,14.25,5v7.5a1.75,1.75,0,0,1-1.75,1.75H5A3.25,3.25,0,0,1,1.75,11V3.5A1.75,1.75,0,0,1,3.5,1.75Z" fill="none"/>
      </g>
    </g>
  </g>
</svg>
